<?xml version="1.0" encoding="UTF-8"?>
<!DOCTYPE svg PUBLIC "-//W3C//DTD SVG 1.1//EN" "http://www.w3.org/Graphics/SVG/1.1/DTD/svg11.dtd">
<svg version="1.1" xmlns="http://www.w3.org/2000/svg" xmlns:xlink="http://www.w3.org/1999/xlink" x="0" y="0" width="254" height="504" viewBox="0, 0, 254, 504">
  <g id="Layer_1">
    <path d="M44.882,259.889 C46.159,260.439 47.589,260.701 49.041,260.582 C50.809,260.462 52.593,259.672 53.882,258.363 C55.191,257.064 55.946,255.311 56.168,253.58 C56.357,252.161 56.209,250.75 55.825,249.43 C56.128,249.405 56.403,249.391 56.606,249.391 C56.92,249.391 57.1,249.41 57.108,249.41 C61.077,249.941 69.576,260.429 69.382,265.713 C69.28,268.474 67.655,271.61 65.141,273.894 C63.162,275.692 60.965,276.663 59.11,276.551 C56.211,276.382 50.371,272.455 46.856,268.314 C45.111,266.258 44.181,264.407 44.304,263.238 C44.429,262.047 44.627,260.935 44.882,259.889 M49.639,251.844 C51.768,250.166 54.001,249.625 55.466,249.459 C55.351,250.804 55.179,252.09 54.82,253.295 C54.385,254.768 53.653,256.088 52.635,257.115 C51.617,258.137 50.31,258.881 48.826,259.227 C47.611,259.523 46.314,259.589 44.964,259.536 C45.842,256.181 47.406,253.601 49.639,251.844 M58.993,278.541 C59.123,278.548 59.253,278.552 59.385,278.552 C61.675,278.552 64.237,277.406 66.482,275.368 C69.377,272.736 71.252,269.064 71.373,265.787 C71.609,259.351 62.273,248.09 57.371,247.436 C56.099,247.267 52.005,247.444 48.406,250.277 C44.974,252.98 42.927,257.269 42.323,263.029 C42.09,265.252 43.833,267.831 45.337,269.603 C48.846,273.738 55.171,278.316 58.993,278.541 M117.353,59.41 L117.277,59.566 C117.304,59.382 117.379,59.271 117.368,59.307 L117.389,59.328 L117.353,59.41 M155.194,286.46 L155.197,286.456 L155.201,286.462 L155.194,286.46 z M245.601,35.777 C240.758,66.65 234.31,119.999 233.211,135.803 C232.938,139.733 227.948,161.033 223.939,178.149 C218.809,200.057 217.316,206.688 217.316,208.415 C217.313,209.137 216.878,212.998 216.459,216.733 C214.679,232.555 213.741,243.061 213.581,249.967 C202.104,240.074 177.805,217.06 175.463,212.338 C174.293,205.947 162.188,191.353 153.188,191.353 C148.002,191.353 120.29,182.607 110.28,179.1 C103.816,158.935 98.403,137.257 97.876,129.342 C97.467,123.237 93.071,102.74 89.539,86.271 C87.882,78.546 86.451,71.874 86.067,69.573 C85.654,67.097 84.12,61.725 82.175,54.923 C78.755,42.952 73.03,22.916 73.729,17.67 C74.095,14.926 78.565,10.194 84.738,9.018 C89.944,8.024 97.555,9.345 104.213,21.276 C111.235,33.856 115.021,48.082 117.689,59.821 L117.293,59.913 C117.257,59.777 117.262,59.664 117.277,59.566 L117.238,59.628 C117.042,59.969 116.618,60.391 116.197,60.782 C115.303,61.575 114.215,62.314 113.076,62.975 C110.785,64.301 108.255,65.362 105.642,66.12 C103.028,66.89 100.302,67.328 97.557,67.3 C94.828,67.233 92.033,66.633 89.646,65.08 C91.757,66.99 94.563,68.101 97.424,68.616 C100.301,69.102 103.265,69.093 106.172,68.714 C109.087,68.342 111.964,67.646 114.776,66.564 C116.116,66.042 117.439,65.433 118.757,64.622 C118.879,65.178 119.001,65.738 119.12,66.279 C121.09,75.32 122.513,81.852 124.918,85.594 C127.795,90.07 131.822,104.828 134.89,116.938 C133.68,118.278 132.029,119.459 130.225,120.412 C127.619,121.803 124.689,122.801 121.704,123.606 C118.71,124.405 115.624,124.973 112.51,125.391 C109.394,125.791 106.246,126.074 103.08,126.047 C106.216,126.515 109.401,126.675 112.591,126.712 C115.781,126.732 118.988,126.598 122.2,126.206 C125.41,125.803 128.638,125.205 131.823,124.048 C133.288,123.512 134.746,122.848 136.154,121.989 C136.546,123.569 136.913,125.061 137.247,126.42 C138.343,130.872 139.207,134.386 139.792,136.43 C140.556,139.107 141.377,144.358 142.248,149.918 C144.137,161.992 145.506,169.559 147.45,173.764 C144.573,175.322 141.678,176.863 138.764,178.351 C136.712,179.394 134.65,180.419 132.564,181.385 C131.521,181.867 130.471,182.337 129.408,182.767 C128.875,182.978 128.339,183.186 127.796,183.361 C127.252,183.536 126.701,183.715 126.122,183.705 C126.693,183.825 127.293,183.754 127.867,183.685 C128.448,183.614 129.021,183.509 129.596,183.402 C130.738,183.178 131.873,182.912 133.002,182.634 C135.262,182.076 137.501,181.455 139.734,180.814 C143.356,179.769 146.949,178.66 150.545,177.515 C154.959,179.986 164.581,178.927 171.251,176.245 C172.709,175.658 174.025,175 175.203,174.278 C177.434,175.281 179.665,176.266 181.913,177.23 C185.746,178.871 189.604,180.459 193.498,181.957 C197.392,183.451 201.319,184.869 205.32,186.075 C207.318,186.679 209.338,187.228 211.39,187.637 C213.428,188.026 215.559,188.386 217.61,187.97 C215.535,188.163 213.514,187.588 211.553,186.997 C209.588,186.382 207.666,185.632 205.767,184.83 C201.967,183.226 198.254,181.42 194.578,179.539 C190.902,177.656 187.271,175.687 183.667,173.667 C182.152,172.817 180.641,171.95 179.134,171.08 C180.619,169.419 181.575,167.558 181.956,165.528 C182.715,161.48 188.198,144.983 193.501,129.027 C193.562,128.844 193.62,128.668 193.682,128.485 C193.835,128.563 193.985,128.647 194.141,128.719 C195.633,129.465 197.164,130.073 198.701,130.633 C201.779,131.733 204.929,132.492 208.083,133.046 L210.456,133.408 C211.244,133.525 212.043,133.576 212.834,133.663 C214.412,133.855 216.004,133.884 217.583,133.963 C219.162,134.031 220.746,133.962 222.317,133.967 C223.892,133.896 225.462,133.785 227.024,133.695 C225.458,133.563 223.896,133.454 222.344,133.305 C220.794,133.08 219.244,132.93 217.714,132.646 C216.186,132.35 214.656,132.106 213.16,131.704 C212.41,131.512 211.655,131.357 210.916,131.137 L208.706,130.473 C205.789,129.524 202.948,128.392 200.286,126.992 C198.963,126.285 197.664,125.543 196.456,124.705 C196.029,124.427 195.625,124.128 195.228,123.826 C203.435,99.08 207.314,86.874 207.314,83.686 C207.314,82.685 207.792,79.963 208.53,76.333 C209.936,76.668 211.339,76.975 212.76,77.263 C215.449,77.803 218.158,78.248 220.89,78.546 C223.618,78.838 226.379,78.987 229.134,78.794 C230.509,78.68 231.887,78.477 233.211,78.072 C234.524,77.669 235.814,77.036 236.732,76.038 C235.66,76.87 234.358,77.249 233.066,77.425 C231.766,77.6 230.446,77.576 229.138,77.47 C226.516,77.223 223.931,76.651 221.384,75.945 C218.838,75.233 216.328,74.383 213.853,73.443 C212.397,72.893 210.938,72.303 209.505,71.692 C210.81,65.643 212.479,58.373 213.886,52.248 C216.604,40.415 219.169,29.237 219.644,25.271 C220.32,19.636 224.264,17.205 226.553,16.258 C231.209,14.334 236.712,15.057 240.577,18.102 C245.052,21.625 246.836,27.902 245.601,35.777 M223.856,274.415 C224.739,278.828 221.377,301.845 218.675,320.34 C216.381,336.042 214.213,350.872 214.082,357.193 C213.84,368.8 199.143,401.092 192.083,412.04 C187.722,415.627 181.955,417.637 175.879,418.013 C169.61,418.45 163.115,417.444 156.864,415.601 C150.602,413.744 144.527,411.05 138.778,407.757 C133.035,404.446 127.601,400.538 122.593,396.099 C127.19,400.959 132.301,405.374 137.832,409.248 C143.373,413.104 149.343,416.42 155.714,418.937 C162.08,421.433 168.891,423.165 176.01,423.307 C179.56,423.368 183.191,423.027 186.742,422.041 C186.835,422.015 186.927,421.984 187.02,421.959 C186.021,427.981 186.902,436.195 187.882,445.251 C188.569,451.604 189.281,458.176 189.079,463.023 C188.906,467.162 182.291,475.053 167.897,483.35 C165.436,484.77 162.913,486.096 160.387,487.315 L143.182,417.279 L154.311,490.031 C145.992,493.464 138.093,495.528 132.595,495.528 C125.999,495.528 115.396,490.892 104.466,484.83 L101.266,450.814 L98.392,481.34 C81.814,471.505 66.054,459.75 63.985,457.293 C62.57,454.853 59.907,439.947 57.915,425.73 C61.87,426.5 65.798,427.016 69.758,427.412 C75.45,427.959 81.167,428.158 86.871,427.924 C92.567,427.684 98.279,427.01 103.784,425.472 C106.53,424.699 109.224,423.702 111.738,422.37 C114.249,421.04 116.585,419.358 118.475,417.279 C116.376,419.149 113.928,420.539 111.366,421.57 C108.798,422.602 106.111,423.286 103.396,423.751 C97.956,424.672 92.405,424.74 86.905,424.394 C81.401,424.044 75.925,423.271 70.533,422.173 C65.358,421.109 60.178,419.773 55.368,418.022 C47.582,412.529 37.354,389.375 30.317,369.336 C27.169,360.37 25.159,337.295 23.691,320.445 C22.835,310.604 22.216,303.494 21.544,300.581 C20.663,296.766 20.581,289.379 20.508,282.861 C20.454,278.015 20.401,273.716 20.075,270.554 C24.633,270.354 34.148,269.824 37.183,269.653 C45.96,276.646 54.149,282.579 56.605,282.908 C57.534,283.031 58.449,283.093 59.347,283.093 C63.829,283.093 67.884,281.564 70.969,278.667 C74.761,275.104 76.793,269.691 76.404,264.184 C76.181,261.043 70.077,251.073 62.42,240.009 C77.292,259.211 81.919,262.83 84.123,263.117 C85.571,263.305 86.959,263.399 88.285,263.399 C93.791,263.399 98.199,261.78 101.171,258.632 C104.636,254.96 105.927,249.498 105.034,242.377 C110.664,244.594 116.674,246.307 122.804,247.041 C122.452,247.633 122.078,248.226 121.671,248.817 C120.298,250.804 118.768,252.774 117.108,254.658 C113.823,258.453 110.206,262.042 106.403,265.43 C98.794,272.213 90.429,278.214 81.55,283.333 C77.114,285.904 72.511,288.186 67.789,290.202 C63.066,292.209 58.226,293.986 53.252,295.308 C48.285,296.64 43.221,297.683 38.082,298.223 C32.943,298.743 27.755,298.838 22.574,298.482 C27.724,299.131 32.938,299.334 38.151,299.103 C43.363,298.852 48.548,298.09 53.669,297.023 C58.799,295.966 63.825,294.439 68.758,292.665 C73.69,290.883 78.529,288.816 83.217,286.443 C92.604,281.719 101.536,276.056 109.811,269.481 C113.951,266.194 117.927,262.681 121.661,258.833 C123.541,256.924 125.326,254.891 127.029,252.702 C127.88,251.606 128.692,250.448 129.46,249.172 C129.684,248.761 129.913,248.378 130.133,247.962 C135.127,249.557 139.089,254.048 142.43,259.017 C141.663,259.397 140.902,259.781 140.134,260.175 C138.14,261.209 136.183,262.293 134.243,263.407 C130.371,265.643 126.607,268.052 122.954,270.612 C115.648,275.731 108.824,281.548 102.742,288.061 C99.73,291.346 96.921,294.813 94.363,298.454 C91.815,302.102 89.611,305.98 87.699,309.979 C85.781,313.98 84.369,318.2 83.257,322.462 C82.168,326.742 81.66,331.13 81.409,335.499 C81.953,331.149 82.75,326.844 84.106,322.702 C85.485,318.578 87.141,314.551 89.272,310.779 C91.397,307.01 93.785,303.399 96.487,300.034 C99.199,296.677 102.136,293.514 105.253,290.543 C111.546,284.655 118.492,279.496 125.853,275.044 C129.07,273.098 132.36,271.278 135.71,269.586 C135.562,269.725 135.404,269.859 135.259,269.999 C131.071,273.972 127.568,278.434 124.475,283.104 C118.329,292.476 113.768,302.698 110.586,313.294 C107.509,323.906 105.813,335.001 106.579,346.029 C106.976,351.528 108.029,357.002 109.972,362.151 C111.904,367.298 114.766,372.094 118.475,376.093 C114.986,371.897 112.428,367.008 110.807,361.861 C109.174,356.709 108.438,351.32 108.343,345.947 C108.177,335.175 110.411,324.494 113.944,314.382 C117.574,304.297 122.532,294.669 128.814,286.139 C131.963,281.894 135.47,277.924 139.379,274.603 C141.313,272.91 143.407,271.501 145.524,270.273 C146.492,269.758 147.472,269.319 148.453,268.946 C150.209,271.898 151.847,274.431 153.633,276.218 L153.688,276.166 L154.055,284.606 L155.197,286.456 L155.251,286.49 L155.51,286.662 L156.085,287.066 L157.269,287.937 L159.65,289.723 L164.43,293.328 C167.622,295.728 170.831,298.113 174.075,300.45 C177.321,302.784 180.599,305.081 183.963,307.252 C185.648,308.332 187.353,309.385 189.109,310.352 C189.986,310.834 190.876,311.297 191.797,311.695 C192.718,312.079 193.66,312.483 194.664,312.552 C193.675,312.396 192.784,311.919 191.911,311.462 C191.04,310.992 190.202,310.458 189.377,309.907 C187.728,308.804 186.134,307.618 184.563,306.405 C181.422,303.969 178.375,301.413 175.359,298.82 C172.345,296.224 169.369,293.585 166.405,290.924 L161.96,286.924 L159.722,284.919 L158.579,283.915 L158.245,283.633 L158.411,279.814 L175.557,286.094 L186.672,290.073 L192.252,292.007 C194.121,292.616 195.973,293.316 197.901,293.725 C196.04,293.105 194.285,292.207 192.499,291.392 L187.182,288.851 L176.595,283.659 L161.001,274.427 L158.776,271.393 C157.143,269.76 155.085,266.325 153.066,262.864 C147.851,253.922 140.708,241.676 128.251,240.389 L127.981,240.372 C113.06,239.979 98.037,232.052 88.059,225.472 C74.649,216.628 64.173,200.423 64.21,188.578 C64.223,184.512 65.537,181.4 68.103,179.293 C68.9,179.229 69.757,179.021 70.675,178.739 C69.166,182.066 68.702,186.256 71.07,190.202 C75.342,197.321 91.68,205.269 100.636,205.269 C101.752,205.269 102.753,205.145 103.603,204.881 C111.207,202.517 112.095,194.201 112.714,187.365 C124.24,191.246 142.914,196.944 150.766,198.173 C149.605,199.318 148.553,200.561 147.632,201.892 C146.609,203.392 145.751,205 145.136,206.696 C144.516,208.389 144.157,210.166 144.068,211.945 C144.304,210.178 144.804,208.462 145.544,206.863 C146.279,205.263 147.239,203.779 148.339,202.421 C149.449,201.07 150.696,199.838 152.053,198.757 C152.215,198.629 152.382,198.51 152.548,198.387 C152.779,198.403 152.996,198.413 153.188,198.413 C158.218,198.413 168.108,210.335 168.511,213.56 C168.599,214.257 168.725,215.228 170.789,217.943 C170.676,218.527 170.5,219.1 170.241,219.652 C169.876,220.441 169.363,221.179 168.754,221.855 C168.121,222.508 167.41,223.116 166.623,223.635 C165.059,224.695 163.262,225.451 161.424,226.066 C163.333,225.735 165.249,225.26 167.056,224.404 C167.964,223.986 168.83,223.455 169.648,222.829 C170.448,222.179 171.184,221.414 171.777,220.521 C171.945,220.273 172.096,220.013 172.237,219.749 C175.241,223.333 180.733,229.106 190.847,238.725 C197.897,245.431 209.584,256.15 214.328,259.634 C214.471,260.079 214.63,260.464 214.811,260.788 L215.174,261.431 L215.751,261.876 C215.817,261.927 222.387,267.059 223.856,274.415 M19.656,254.964 C23.517,258.376 28.266,262.412 33.084,266.345 C28.241,266.612 22.568,266.915 19.624,267.043 C19.442,264.402 19.514,259.376 19.656,254.964 M10.108,239.468 C7.539,235.43 5.301,217.284 9.311,214.133 C10.13,213.489 10.937,212.794 11.716,212.121 C16.68,207.839 20.969,204.14 31.432,209.428 L36.571,212.026 L38.431,213.853 C51.088,229.331 72.577,260.112 72.882,264.433 C73.198,268.892 71.578,273.251 68.551,276.094 C65.595,278.872 61.625,280.018 57.095,279.413 C54.227,278.804 34.585,262.324 19.909,248.936 L18.683,247.818 C13.172,242.79 10.521,240.049 10.108,239.468 M75.693,238.796 C76.723,239.495 78.035,239.825 79.285,239.875 C80.906,239.938 82.516,239.622 84.01,239.047 C85.506,238.474 86.899,237.618 88.064,236.494 C88.613,235.963 89.089,235.347 89.463,234.672 C91.599,235.939 93.871,237.203 96.264,238.421 C98.484,241.31 100.278,244.773 100.27,248.422 C100.264,250.674 98.853,252.32 97.67,253.306 C94.717,255.763 89.92,256.982 86,256.268 C80.314,255.235 74.829,243.875 74.608,242.334 C74.842,241.007 75.218,239.836 75.693,238.796 M88.681,234.208 C88.221,234.664 87.706,235.06 87.183,235.434 C86.003,236.24 84.707,236.882 83.373,237.401 C82.036,237.913 80.652,238.316 79.235,238.503 C78.134,238.633 77.017,238.648 75.882,238.401 C77.914,234.326 81.557,232.419 84.425,231.529 C85.763,232.407 87.183,233.305 88.681,234.208 M101.705,244.501 C101.276,242.98 100.627,241.524 99.844,240.154 C100.301,240.366 100.757,240.58 101.222,240.787 C101.456,242.089 101.617,243.327 101.705,244.501 M46.116,178.989 C51.899,177.21 56.914,177.049 60.347,177.369 C58.254,180.425 57.164,184.202 57.15,188.557 C57.107,202.237 67.865,219.792 82.444,230.175 C78.481,231.752 73.83,235.074 72.631,242.078 C72.308,243.968 78.652,256.957 85.643,258.229 C86.491,258.382 87.377,258.456 88.277,258.456 C92.108,258.456 96.213,257.111 98.943,254.837 C99.594,254.294 100.142,253.712 100.606,253.1 C100.099,254.286 99.436,255.327 98.604,256.209 C94.967,260.061 88.97,260.19 84.609,259.622 C82.546,259.102 73.737,250.79 37.924,200.956 C36.882,199.505 36.036,198.328 35.427,197.487 C34.775,184.245 40.994,180.565 46.116,178.989 M84.487,176.84 C87.917,178.624 95.087,182.146 101.277,183.874 C100.354,186.561 100.292,189.357 101.188,191.908 C102.153,194.651 104.125,196.837 106.705,198.137 C105.771,199.713 104.463,200.917 102.556,201.509 C96.393,203.43 78.043,194.963 74.097,188.386 C72.313,185.413 72.942,182.423 73.783,180.438 C74.435,178.903 75.298,177.759 76.032,177.01 C78.966,176.184 82.215,175.66 84.487,176.84 M109.278,186.188 L109.236,186.655 C108.917,190.17 108.588,193.743 107.476,196.552 C105.313,195.453 103.662,193.62 102.854,191.322 C102.077,189.111 102.151,186.669 102.99,184.313 C103.765,184.489 104.51,184.62 105.227,184.716 C106.27,185.119 107.647,185.618 109.278,186.188 M244.945,12.555 C239.106,7.957 230.83,6.849 223.854,9.734 C217.53,12.349 213.441,17.706 212.635,24.431 C212.204,28.023 209.561,39.535 207.005,50.667 C202.805,68.957 200.254,80.304 200.256,83.646 C200.082,86.844 192.405,109.939 186.801,126.801 C180.932,144.459 175.863,159.708 175.017,164.227 C174.566,166.628 171.516,168.379 169.736,169.209 C163.439,172.148 155.811,172.202 154.165,171.47 C152.381,169.013 150.332,155.917 149.223,148.827 C148.279,142.795 147.465,137.586 146.579,134.49 C146.031,132.573 145.139,128.941 144.104,124.734 C139.597,106.414 134.861,88.007 130.858,81.777 C129.14,79.105 127.693,72.465 126.018,64.776 C123.164,51.678 119.256,33.74 110.378,17.836 C101.208,1.406 89.549,0.914 83.417,2.082 C75.082,3.671 67.597,10.244 66.731,16.737 C65.905,22.937 70.163,38.578 75.387,56.863 C77.195,63.19 78.756,68.652 79.103,70.734 C79.513,73.195 80.891,79.619 82.636,87.751 C85.75,102.273 90.456,124.218 90.83,129.812 C91.424,138.724 96.81,159.516 102.151,176.788 C98.286,175.587 93.177,173.402 87.744,170.576 C81.823,167.498 74.866,169.871 70.264,171.442 C69.604,171.667 68.774,171.95 68.192,172.119 C64.025,169.982 54.27,169.093 44.04,172.242 C32.201,175.884 27.023,185.446 28.6,200.702 C17.8,197.549 11.723,202.791 7.104,206.776 C6.352,207.424 5.642,208.038 4.949,208.582 C-3.436,215.17 0.613,237.697 4.152,243.258 C4.954,244.519 7.828,247.428 12.704,251.916 C12.52,256.304 12.189,266.323 12.838,269.684 C13.329,272.234 13.39,277.677 13.449,282.941 C13.529,290.152 13.612,297.609 14.664,302.168 C15.225,304.599 15.89,312.226 16.659,321.057 C18.241,339.24 20.212,361.869 23.656,371.673 C28.139,384.443 39.463,414.2 50.435,423.138 C51.919,434.329 55.259,457.225 58.238,461.396 C61.464,465.914 111.183,502.588 132.595,502.588 C152.535,502.588 195.413,480.587 196.133,463.317 C196.357,457.942 195.617,451.105 194.901,444.492 C193.902,435.256 192.532,422.607 195.218,419.653 C201.965,412.231 220.828,372.322 221.141,357.34 C221.264,351.459 223.399,336.839 225.66,321.361 C229.431,295.555 231.824,278.25 230.78,273.03 C229.127,264.76 223.122,258.902 220.877,256.958 C219.635,251.654 222.508,226.112 223.474,217.522 C224.085,212.093 224.363,209.578 224.377,208.493 C224.557,206.472 227.88,192.285 230.813,179.759 C236.158,156.942 239.963,140.466 240.254,136.294 C241.344,120.615 247.756,67.594 252.575,36.871 C254.799,22.693 248.749,15.551 244.945,12.555" fill="#0B0B09"/>
  </g>
</svg>
